<?xml version="1.0" encoding="UTF-8" standalone="no"?>
<!-- Created with Inkscape (http://www.inkscape.org/) -->

<svg
   width="107.15265mm"
   height="72.32132mm"
   viewBox="0 0 107.15265 72.32132"
   version="1.1"
   id="svg5"
   xml:space="preserve"
   inkscape:version="1.2.1 (9c6d41e410, 2022-07-14)"
   sodipodi:docname="Logo-v2.svg"
   xmlns:inkscape="http://www.inkscape.org/namespaces/inkscape"
   xmlns:sodipodi="http://sodipodi.sourceforge.net/DTD/sodipodi-0.dtd"
   xmlns="http://www.w3.org/2000/svg"
   xmlns:svg="http://www.w3.org/2000/svg"><sodipodi:namedview
     id="namedview7"
     pagecolor="#ffffff"
     bordercolor="#999999"
     borderopacity="1"
     inkscape:showpageshadow="0"
     inkscape:pageopacity="0"
     inkscape:pagecheckerboard="0"
     inkscape:deskcolor="#d1d1d1"
     inkscape:document-units="mm"
     showgrid="false"
     inkscape:zoom="0.24186658"
     inkscape:cx="-1170.0666"
     inkscape:cy="-434.12364"
     inkscape:window-width="1366"
     inkscape:window-height="697"
     inkscape:window-x="-8"
     inkscape:window-y="-8"
     inkscape:window-maximized="1"
     inkscape:current-layer="layer1"
     showguides="true" /><defs
     id="defs2" /><g
     inkscape:label="Layer 1"
     inkscape:groupmode="layer"
     id="layer1"
     transform="translate(470.60432,314.62789)"><g
       id="g7095"
       inkscape:export-filename=".\g7095.png"
       inkscape:export-xdpi="96"
       inkscape:export-ydpi="96"><rect
         style="fill:none;fill-opacity:1;stroke:none;stroke-width:14.5578;stroke-linecap:square"
         id="rect980-3-0-4-3-3-7"
         width="135.46667"
         height="135.46667"
         x="-484.76132"
         y="-346.20059"
         inkscape:export-filename="rect980.png"
         inkscape:export-xdpi="96"
         inkscape:export-ydpi="96" /><path
         d="m -470.14869,-244.40385 c 0.34112,-0.15542 0.67549,-0.49395 0.74305,-0.75227 0.0676,-0.25832 0.31623,-0.46967 0.55262,-0.46967 0.34119,0 0.39979,-0.14998 0.28426,-0.72763 -0.1017,-0.50853 -0.0358,-0.76973 0.21882,-0.86744 0.23272,-0.0893 0.36435,0.0168 0.36435,0.2937 0,0.23842 0.22507,0.85342 0.50016,1.36668 0.59722,1.11428 0.63015,1.58186 0.12504,1.77569 -0.20632,0.0792 -0.37512,0.42882 -0.37512,0.777 0,0.62865 -0.49007,0.80867 -1.75057,0.64301 -1.05459,-0.13859 -1.54197,-1.63841 -0.66261,-2.03907 z m 3.41183,-5.38522 c 0.11919,-0.2954 0.33713,-0.61152 0.48432,-0.70249 0.14718,-0.0909 0.2676,-0.43344 0.2676,-0.76107 0,-0.32762 0.11253,-0.66523 0.25008,-0.75024 0.13754,-0.085 0.25406,-0.34486 0.25892,-0.57745 0.005,-0.23258 0.39111,-0.98052 0.85833,-1.66207 0.46722,-0.68157 0.79421,-1.32866 0.72664,-1.43798 -0.0676,-0.10932 -0.0245,-0.19876 0.0957,-0.19876 0.30568,0 0.99427,-1.51353 1.20877,-2.65691 0.0987,-0.52619 0.33205,-1.10929 0.51851,-1.29575 0.18648,-0.18647 0.2751,-0.4425 0.19694,-0.56896 -0.0782,-0.12646 -0.0322,-0.22992 0.10203,-0.22992 0.27334,0 0.78114,-2.00514 0.96583,-3.81374 0.0863,-0.84458 0.0316,-1.18788 -0.18928,-1.18788 -0.22647,0 -0.26973,-0.3449 -0.15972,-1.2737 0.12493,-1.05493 0.088,-1.24957 -0.21525,-1.13322 -0.43842,0.16824 -0.48778,-0.37235 -0.0719,-0.78817 0.20658,-0.20659 0.38793,-0.21631 0.60921,-0.0327 0.22064,0.18312 0.47908,0.17371 0.8623,-0.0314 0.30098,-0.16108 0.81827,-0.32261 1.14954,-0.35898 0.33127,-0.0364 0.64113,-0.10933 0.68857,-0.16212 0.85509,-0.95173 2.64825,-3.65769 2.64825,-3.9963 0,-0.24893 0.0982,-0.7111 0.2181,-1.02705 0.11996,-0.31595 0.35117,-1.02459 0.51382,-1.57478 0.32436,-1.09723 1.30649,-3.42768 1.52819,-3.62618 0.0768,-0.0688 0.15458,-0.36734 0.17282,-0.66351 0.0498,-0.80937 1.45704,-4.15329 3.10603,-7.3808 0.77122,-1.50947 1.11109,-3.703 0.62261,-4.01828 -0.20691,-0.13354 -0.20142,-0.18477 0.02,-0.18756 0.16762,-0.002 0.23998,-0.17263 0.1608,-0.37894 -0.0792,-0.20632 -0.0194,-0.37513 0.1329,-0.37513 0.15227,0 0.27684,-0.17545 0.27684,-0.38988 0,-0.21444 0.10293,-0.32627 0.22872,-0.24852 0.1258,0.0778 0.26731,0.0256 0.31446,-0.11584 0.25514,-0.76542 6.065,-0.73173 7.52893,0.0437 0.45548,0.24126 0.55324,1.85569 0.12827,2.11834 -0.10878,0.0672 -0.19779,0.43943 -0.19779,0.82711 0,0.38768 -0.17356,0.84892 -0.38571,1.02498 -0.2676,0.22209 -0.3059,0.39995 -0.12505,0.5808 0.14338,0.14338 0.26068,0.41892 0.26068,0.61231 0,0.19341 0.28135,0.57294 0.6252,0.84342 0.34386,0.27049 0.6252,0.74752 0.6252,1.06008 0,0.31256 0.22507,0.77198 0.50016,1.02093 0.2751,0.24896 0.50016,0.65363 0.50016,0.89928 0,0.24566 0.11254,0.5162 0.25008,0.60121 0.13756,0.085 0.25009,0.31339 0.25009,0.50751 0,0.19412 0.27582,0.95595 0.61293,1.69297 0.33711,0.737 0.77979,2.1403 0.98375,3.11844 0.83192,3.98994 3.65502,7.56558 3.65502,4.62932 0,-0.33613 0.10992,-0.53177 0.25008,-0.44514 0.13754,0.085 0.25008,-0.0838 0.25008,-0.37513 0,-0.34073 0.10437,-0.46517 0.29258,-0.34885 0.18969,0.11723 0.24244,0.0501 0.14999,-0.19076 -0.0814,-0.21214 0.0613,-0.49891 0.33263,-0.66834 0.26137,-0.16323 0.47521,-0.46919 0.47521,-0.67991 0,-0.21072 0.21979,-0.68805 0.48842,-1.06072 0.26863,-0.37268 0.7925,-1.56997 1.16415,-2.66065 0.37164,-1.09068 0.99589,-2.45745 1.38718,-3.03725 0.39131,-0.57981 0.71147,-1.16508 0.71147,-1.30061 0,-0.47483 3.01528,-2.87368 4.43917,-3.53166 1.41795,-0.65523 2.56309,-0.75202 2.56309,-0.21664 0,0.15089 0.0743,0.20005 0.16514,0.10923 0.25984,-0.25984 0.91438,0.83729 1.00657,1.68723 0.3535,3.25873 0.3741,3.33998 0.91369,3.60102 0.29725,0.1438 0.39979,0.26907 0.22786,0.27838 -0.17193,0.009 -0.31261,0.1998 -0.31261,0.4233 0,0.31816 -0.16287,0.37382 -0.75024,0.25634 -0.469,-0.0938 -0.75024,-0.0472 -0.75024,0.1244 0,0.17462 -0.1463,0.15303 -0.40218,-0.0594 -0.34005,-0.28222 -0.45056,-0.26762 -0.7153,0.0944 -0.1722,0.23552 -0.43146,0.42821 -0.57612,0.42821 -0.53591,0 0.21734,2.57249 1.31522,4.4917 0.54516,0.95298 0.0335,1.40475 -0.86587,0.76439 -0.3783,-0.26937 -0.75951,-0.41808 -0.84715,-0.33044 -0.0876,0.0876 -0.15933,0.0309 -0.15933,-0.126 0,-0.42366 -1.35725,-1.0473 -2.00698,-0.92217 -0.31077,0.0598 -0.73664,0.0129 -0.94636,-0.10458 -0.21197,-0.11862 -0.50158,-0.11679 -0.65211,0.004 -1.32693,1.06589 -2.42632,2.27488 -2.8684,3.15435 -0.29153,0.57997 -0.75476,1.17475 -1.0294,1.32172 -0.27464,0.14699 -0.49935,0.40603 -0.49935,0.57565 0,0.16961 -0.30947,0.50027 -0.68772,0.73479 -0.54548,0.3382 -0.59168,0.42776 -0.22333,0.43304 0.29182,0.004 0.41494,0.13555 0.33132,0.35347 -0.0954,0.24865 0.0127,0.3087 0.38185,0.21216 0.30275,-0.0792 0.47537,-0.0265 0.41892,0.12802 -0.22878,0.62604 -2.83013,3.31431 -3.20713,3.31431 -0.22825,0 -0.53002,0.11501 -0.6706,0.25558 -0.90136,0.90136 -4.17356,0.21502 -4.46245,-0.936 -0.0817,-0.32527 -0.30077,-0.64986 -0.48694,-0.72131 -0.28262,-0.10845 -0.2784,-0.32344 0.0256,-1.3022 0.30653,-0.98689 0.31416,-1.44922 0.0482,-2.92289 -0.17376,-0.96281 -0.28718,-1.85686 -0.25204,-1.98679 0.0352,-0.12992 -0.0559,-0.49566 -0.20241,-0.81276 -0.45412,-0.9832 -0.7211,-1.66419 -1.0594,-2.70224 -0.80374,-2.46629 -3.27918,-5.83551 -3.90692,-5.31757 -0.30911,0.25504 -0.40388,0.25367 -0.49162,-0.008 -0.0835,-0.24816 -0.19,-0.25555 -0.45949,-0.0319 -0.19295,0.16013 -0.3508,0.18359 -0.3508,0.0521 0,-0.13146 -0.16881,-0.23902 -0.37513,-0.23902 -0.20631,0 -0.37512,0.12393 -0.37512,0.27539 0,0.15147 -0.26323,0.66726 -0.58497,1.1462 -0.32174,0.47896 -0.73883,1.57419 -0.92687,2.43384 -0.18804,0.85965 -0.43122,1.563 -0.5404,1.563 -0.10916,0 -0.19849,0.27197 -0.19849,0.60437 0,0.33239 -0.12221,0.6451 -0.27157,0.69488 -0.43776,0.14592 -2.04214,5.77802 -2.01641,7.07847 0.0197,0.99138 -0.47986,2.09735 -1.02542,2.27051 -0.2408,0.0764 -0.43781,0.21992 -0.43781,0.31888 0,0.099 -0.50642,0.71602 -1.12537,1.37125 -0.61895,0.65524 -1.12536,1.40407 -1.12536,1.66408 0,0.26001 -0.11948,0.54658 -0.26551,0.63683 -0.14603,0.0903 -0.37594,0.40638 -0.5109,0.70248 -0.37715,0.82747 -0.85486,1.61553 -1.2728,2.09967 -0.2086,0.24166 -0.64056,0.97392 -0.95993,1.62726 -0.31936,0.65333 -0.65318,1.18789 -0.74183,1.18789 -0.0887,0 -0.4157,0.59081 -0.72678,1.31292 -0.88194,2.04726 -1.09305,2.43829 -1.31638,2.43829 -0.1143,0 -0.20782,0.22507 -0.20782,0.50017 0,0.27508 -0.0901,0.50015 -0.20025,0.50015 -0.11014,0 -0.4491,0.51222 -0.75326,1.13826 -0.30416,0.62605 -0.66419,1.06955 -0.80008,0.98557 -0.13588,-0.084 -0.24738,0.0509 -0.24778,0.2997 -9.4e-4,0.65948 -3.16268,3.91746 -3.34374,3.44563 -0.0775,-0.20205 -0.36958,-0.36737 -0.64899,-0.36737 -0.55265,0 -0.65805,-0.67493 -0.25961,-1.66246 z m 46.65986,-24.90865 c 0.10469,-0.10317 0.69112,-0.18756 1.30319,-0.18756 0.95642,0 1.09597,-0.0646 0.99283,-0.45895 -0.0981,-0.3753 -0.006,-0.43706 0.50817,-0.33886 0.39661,0.0758 0.56882,0.0241 0.46718,-0.14042 -0.0886,-0.14327 -0.01,-0.62041 0.17528,-1.06031 0.33027,-0.78546 0.17907,-1.75862 -0.41801,-2.69048 -0.12772,-0.19934 -0.0666,-0.31261 0.16875,-0.31261 0.20297,0 0.40836,-0.11795 0.45641,-0.26211 0.048,-0.14416 0.76078,-0.32848 1.58385,-0.40959 2.33079,-0.22973 3.6501,-2.23099 3.95361,-5.99722 0.024,-0.29806 0.12807,-0.62629 0.23123,-0.72941 0.10316,-0.10311 0.18756,-0.37634 0.18756,-0.6072 0,-0.23084 0.22904,-0.627 0.50899,-0.88033 0.27994,-0.25335 0.45272,-0.60725 0.38394,-0.78646 -0.0741,-0.19303 0.1182,-0.38687 0.47173,-0.47561 0.46679,-0.11715 0.66028,-0.41457 0.88843,-1.3656 0.16042,-0.66872 0.45059,-1.34773 0.64483,-1.50893 0.19422,-0.1612 0.35314,-0.42784 0.35314,-0.59254 0,-0.16471 0.35147,-0.68547 0.78106,-1.15727 0.42958,-0.47179 1.22495,-1.81437 1.76747,-2.9835 1.83539,-3.95518 1.9601,-4.19608 2.3319,-4.50464 0.2042,-0.16948 0.37127,-0.4069 0.37127,-0.5276 0,-0.1207 0.22508,-0.44453 0.50017,-0.71962 0.27508,-0.27508 0.50016,-0.67561 0.50016,-0.89004 0,-0.21444 0.11253,-0.32033 0.25008,-0.23533 0.14698,0.0908 0.25008,-0.17801 0.25008,-0.65212 0,-0.44367 0.0711,-0.73561 0.15792,-0.64876 0.35515,0.35516 1.13853,-0.34295 0.81811,-0.72904 -0.24651,-0.29702 -0.34706,-0.30586 -0.51248,-0.0451 -0.15601,0.24594 -0.20674,0.22502 -0.20964,-0.0865 -0.002,-0.226 0.16497,-0.47567 0.37129,-0.55484 0.21637,-0.083 0.37513,-0.45678 0.37513,-0.88314 0,-0.40655 0.3376,-1.58234 0.75024,-2.61284 0.41263,-1.03051 0.75024,-1.98245 0.75024,-2.11542 0,-0.13298 0.21553,-0.29814 0.47898,-0.36703 0.26343,-0.0689 0.51664,-0.38268 0.56268,-0.69731 0.046,-0.31462 0.24231,-0.62434 0.43616,-0.68828 0.24131,-0.0796 0.3033,0.0118 0.19656,0.29002 -0.0857,0.22343 -0.0755,0.39427 0.0227,0.37963 0.48022,-0.0716 0.81855,0.0564 0.69169,0.26171 -0.21477,0.3475 0.32493,1.574 0.614,1.39534 0.47737,-0.29503 1.16306,0.12008 1.14311,0.69202 -0.0155,0.44376 0.10255,0.54615 0.57066,0.49503 0.45589,-0.0498 0.55448,0.0285 0.4333,0.34438 -0.0938,0.24439 0.0209,0.54372 0.2851,0.74421 0.26785,0.20326 0.31883,0.33853 0.12939,0.34335 -0.17193,0.005 -0.3126,0.20605 -0.3126,0.44815 0,0.24211 -0.26185,0.72259 -0.58189,1.06775 -0.32004,0.34514 -0.53456,0.76952 -0.47671,0.94306 0.0578,0.17354 0.0102,0.29868 -0.10584,0.27809 -0.53762,-0.0954 -0.79355,0.0651 -0.93233,0.58448 -0.0827,0.30948 -0.53544,1.0005 -1.00611,1.5356 -0.47067,0.53511 -0.80578,1.10319 -0.74468,1.26241 0.0611,0.15922 -0.15717,0.5415 -0.48502,0.84951 -0.41517,0.39003 -0.56038,0.74695 -0.47838,1.17588 0.0682,0.35701 2.5e-4,0.61586 -0.16151,0.61586 -0.15357,0 -0.27923,0.25884 -0.27923,0.57519 0,0.31635 -0.0983,0.68209 -0.21843,0.81277 -0.12013,0.13066 -0.40338,1.19413 -0.62946,2.36326 -0.32174,1.66392 -0.54592,2.23638 -1.03197,2.63524 -0.34153,0.28026 -0.62095,0.68653 -0.62095,0.90283 0,0.21629 -0.39388,0.8109 -0.87528,1.32133 -0.48142,0.51045 -0.87529,1.08887 -0.87529,1.28539 0,0.19653 -0.0954,0.35732 -0.21211,0.35732 -0.11664,0 -0.4191,0.47828 -0.67211,1.06285 -0.25302,0.58456 -0.60135,1.23346 -0.77406,1.442 -0.17273,0.20854 -0.43716,0.92858 -0.58765,1.60008 -0.15049,0.6715 -0.49447,1.53108 -0.76441,1.91017 -0.26993,0.37909 -0.49079,0.90258 -0.49079,1.16333 0,0.26072 -0.0936,0.58097 -0.20793,0.71163 -0.23457,0.26803 -0.69729,1.82327 -0.91153,3.06368 -0.14453,0.83686 -0.21988,1.02677 -0.99231,2.50108 -0.23795,0.45414 -0.37821,0.96749 -0.31172,1.14079 0.17224,0.44882 -0.5811,1.91535 -1.39523,2.71612 -0.38097,0.37473 -0.76126,1.02416 -0.84506,1.44317 -0.0838,0.41902 -0.23674,0.81399 -0.33987,0.87773 -0.10313,0.0637 -0.13023,0.62407 -0.0602,1.2452 0.076,0.67438 0.0261,1.12931 -0.12406,1.12931 -0.13824,0 -0.25421,0.2532 -0.25772,0.56268 -0.0138,1.21503 -0.4805,1.85805 -1.54469,2.12816 -1.02295,0.25966 -2.51276,-0.0338 -2.51276,-0.49494 0,-0.10739 -0.10129,-0.19525 -0.22508,-0.19525 -0.12379,0 -0.60706,-0.36575 -1.07395,-0.81277 -0.46688,-0.44702 -1.37842,-1.30118 -2.02565,-1.89814 -1.24408,-1.14746 -1.45101,-1.83256 -0.80961,-2.68055 0.20194,-0.26699 0.37074,-0.85118 0.37512,-1.29821 0.005,-0.45962 0.14377,-0.82818 0.32055,-0.84825 0.17194,-0.0195 -0.12003,-0.10391 -0.64881,-0.18756 -0.52878,-0.0837 -0.87576,-0.23647 -0.77108,-0.33962 z m 23.86754,-20.81749 c 0.13597,0.084 0.24721,-0.089 0.24721,-0.38457 0,-0.55842 0.88784,-1.47 1.44582,-1.48449 0.17625,-0.005 0.38499,-0.17648 0.46385,-0.38201 0.0788,-0.20552 0.24436,-0.31129 0.36774,-0.23503 0.12339,0.0763 0.33276,-0.12133 0.46528,-0.43908 0.40779,-0.97786 1.21757,-1.74541 2.07003,-1.96209 0.44776,-0.11382 1.28995,-0.38204 1.87153,-0.59607 0.58157,-0.21402 1.53813,-0.43746 2.12568,-0.49654 0.58756,-0.0591 1.36619,-0.22208 1.7303,-0.36225 0.3641,-0.14018 0.73922,-0.17765 0.83359,-0.0833 0.0943,0.0944 0.67858,0.18348 1.29823,0.19801 0.83464,0.0196 1.27967,0.1816 1.71702,0.6252 0.3247,0.32933 1.04623,1.04592 1.60341,1.59241 0.55718,0.54648 1.01305,1.0724 1.01305,1.16869 0,0.0963 0.26446,0.4932 0.58769,0.882 0.83457,1.00387 0.54905,4.31377 -0.37354,4.33022 -0.0886,0.002 -0.85102,0.67809 -1.69442,1.50335 -0.8434,0.82527 -1.65516,1.50049 -1.80392,1.50049 -0.14875,0 -0.21089,0.15523 -0.13808,0.34497 0.13558,0.35333 -0.5826,1.42725 -1.42753,2.13464 -0.26035,0.21798 -0.65423,0.61056 -0.87528,0.87241 -0.22105,0.26185 -0.77567,0.8808 -1.23248,1.37545 -2.085,2.25767 -1.99613,5.13051 0.21075,6.81314 0.4244,0.32358 1.49163,1.28237 2.37161,2.13063 0.87999,0.84826 1.83053,1.61547 2.11231,1.7049 0.28178,0.0894 0.51232,0.30481 0.51232,0.47862 0,0.1738 0.30947,0.47357 0.68772,0.66617 2.01056,1.02371 3.81374,2.44671 3.81374,3.00965 0,0.13672 0.25586,0.50443 0.56858,0.81715 0.31271,0.31271 0.58694,0.8125 0.60941,1.11065 0.0225,0.29814 0.39069,0.90933 0.81831,1.35818 0.42762,0.44886 1.12889,1.35066 1.5584,2.00399 0.42949,0.65333 0.8745,1.18788 0.98888,1.18788 0.11437,0 0.20796,0.14373 0.20796,0.31939 0,0.17566 0.33121,0.68202 0.73602,1.12524 0.40483,0.44322 0.9303,1.1347 1.16772,1.53662 0.23742,0.40193 0.69209,0.87015 1.01039,1.04049 0.3183,0.17035 0.6436,0.51415 0.72289,0.764 0.15815,0.49823 1.82574,1.96621 2.23435,1.96686 0.48966,8.8e-4 2.13123,1.99095 2.13123,2.58381 0,0.8463 -0.74315,2.22356 -1.12147,2.07838 -0.17495,-0.0671 -0.43083,-0.009 -0.56864,0.12852 -0.25368,0.25368 -1.43463,-0.79098 -6.90046,-6.10404 -1.37961,-1.34106 -2.59947,-2.43829 -2.71078,-2.43829 -0.11131,0 -0.2076,-0.14068 -0.21396,-0.31261 -0.007,-0.17193 -0.44747,-0.65021 -0.98022,-1.06284 -0.53274,-0.41263 -1.06208,-0.9429 -1.1763,-1.17837 -0.32207,-0.66396 -3.10198,-3.44813 -3.44286,-3.44813 -0.16709,0 -0.56263,-0.2755 -0.87897,-0.61223 -0.31633,-0.33673 -0.88476,-0.68023 -1.26317,-0.76334 -0.3784,-0.0831 -1.06134,-0.42655 -1.51766,-0.76321 -0.45631,-0.33666 -0.98525,-0.61211 -1.17544,-0.61211 -0.40739,0 -1.80778,-1.34116 -1.80778,-1.73133 0,-0.14812 -0.10436,-0.26931 -0.23192,-0.26931 -0.12756,0 -0.52335,-0.61601 -0.87952,-1.36892 -0.35619,-0.75289 -0.85534,-1.48008 -1.10923,-1.61596 -0.25389,-0.13588 -0.61394,-0.6171 -0.80011,-1.06938 -0.3877,-0.94189 -1.1618,-1.67715 -1.77852,-1.68929 -0.23259,-0.005 -0.49243,-0.12085 -0.57745,-0.25839 -0.085,-0.13755 -0.34486,-0.25018 -0.57744,-0.25028 -0.69207,-2.6e-4 -2.29909,-1.59256 -2.29374,-2.27264 0.007,-0.90497 1.397,-2.97889 1.99636,-2.97889 0.27484,0 0.4997,-0.11724 0.4997,-0.26053 0,-0.62634 4.9359,-4.24092 5.7912,-4.24092 0.23034,0 0.78538,-0.47828 1.23341,-1.06284 0.44804,-0.58457 0.93578,-1.17567 1.08386,-1.31357 0.89295,-0.8315 1.23128,-2.12358 1.16987,-4.46781 l -0.0254,-0.9673 -1.43796,0.16975 c -0.79088,0.0934 -1.73831,0.16183 -2.1054,0.15212 -0.36709,-0.01 -0.86507,0.18039 -1.10662,0.42243 -0.24155,0.24204 -0.78524,0.55261 -1.20818,0.69015 -0.42294,0.13755 -0.71272,0.33232 -0.64395,0.43282 0.35041,0.51213 -1.05196,0.97465 -2.56843,0.84714 -2.235,-0.18794 -3.15625,-0.56615 -3.33086,-1.36747 -0.0794,-0.3645 -0.19001,-0.80924 -0.24572,-0.98832 -0.0557,-0.17908 0.01,-0.25684 0.14593,-0.1728 z"
         style="fill:#b74d1e;fill-opacity:1;stroke-width:0.250081"
         id="path913-9-0-1-6-7-7" /></g></g></svg>
